<svg width="426" height="427" viewBox="0 0 426 427" fill="none" xmlns="http://www.w3.org/2000/svg">
<path d="M212.618 282.952C179.025 282.952 151.003 259.123 144.351 227.462H32.5953C40.4947 319.53 117.576 391.767 211.454 391.767C305.332 391.767 382.496 319.53 390.312 227.462H280.885C274.233 259.206 246.211 282.952 212.618 282.952Z" fill="white"/>
<path d="M252.531 387.101C327.034 369.604 383.66 305.699 390.312 227.462H346.242C341.835 298.45 304.667 358.606 252.531 387.101Z" fill="#DFDFDF"/>
<path d="M253.778 213.047C253.695 213.047 253.695 213.047 253.778 213.047C253.695 207.965 252.78 203.132 251.117 198.633C245.297 182.969 230.246 171.888 212.618 171.888C194.99 171.888 179.94 183.052 174.119 198.633C172.456 203.132 171.541 207.965 171.541 213.047H171.624C171.624 218.13 172.539 222.962 174.202 227.462C180.023 243.126 195.073 254.207 212.701 254.207C230.329 254.207 245.38 243.042 251.2 227.462C252.863 223.046 253.778 218.13 253.778 213.047Z" fill="white"/>
<path d="M212.701 143.226C246.294 143.226 274.316 167.055 280.968 198.717H392.724C384.824 106.565 307.743 34.3275 213.782 34.3275C119.821 34.3275 42.823 106.565 34.9236 198.633H144.434C151.086 166.972 179.108 143.226 212.701 143.226Z" fill="#FF1C1C"/>
<path d="M346.242 198.633H392.641C385.822 119.063 327.284 54.2408 250.868 38.1602C303.918 66.2388 341.752 126.979 346.242 198.633Z" fill="#DF1818"/>
<path d="M213.782 34.3276C307.743 34.3276 384.824 106.565 392.641 198.633H280.885C274.233 166.972 246.211 143.143 212.618 143.143C179.025 143.143 151.003 166.972 144.351 198.633H34.9236C42.8229 106.565 119.904 34.3276 213.782 34.3276ZM251.117 198.633C252.78 203.132 253.695 207.965 253.695 213.047H253.778C253.778 218.13 252.863 222.962 251.2 227.462C245.38 243.126 230.329 254.207 212.701 254.207C195.073 254.207 180.023 243.042 174.202 227.462C172.539 222.962 171.624 218.13 171.624 213.047H171.541C171.541 207.965 172.456 203.132 174.119 198.633C179.94 182.969 194.99 171.888 212.618 171.888C230.246 171.888 245.296 183.053 251.117 198.633ZM211.454 391.851C117.493 391.851 40.4116 319.613 32.5953 227.545H144.351C151.003 259.206 179.025 283.036 212.618 283.036C246.211 283.036 274.233 259.206 280.885 227.545H390.396C382.496 319.53 305.415 391.851 211.454 391.851ZM212.618 0C95.2083 0 0 95.4006 0 213.047C0 330.694 95.2083 426.095 212.618 426.095C330.028 426.095 425.319 330.778 425.319 213.047C425.319 95.3173 330.111 0 212.618 0Z" fill="black"/>
</svg>
